<?xml version="1.0" standalone="no"?>
<svg xmlns:xlink="http://www.w3.org/1999/xlink" id="wave" style="transform:rotate(0deg); transition: 0.3s" viewBox="0 0 1440 350" version="1.1" xmlns="http://www.w3.org/2000/svg"><defs><linearGradient id="sw-gradient-0" x1="0" x2="0" y1="1" y2="0"><stop stop-color="rgba(36, 59, 81, 1)" offset="0%"/><stop stop-color="rgba(59.173, 95.423, 130.097, 1)" offset="100%"/></linearGradient></defs><path style="transform:translate(0, 0px); opacity:1" fill="url(#sw-gradient-0)" d="M0,175L48,145.8C96,117,192,58,288,40.8C384,23,480,47,576,75.8C672,105,768,140,864,145.8C960,152,1056,128,1152,122.5C1248,117,1344,128,1440,163.3C1536,198,1632,257,1728,274.2C1824,292,1920,268,2016,245C2112,222,2208,198,2304,163.3C2400,128,2496,82,2592,52.5C2688,23,2784,12,2880,17.5C2976,23,3072,47,3168,81.7C3264,117,3360,163,3456,204.2C3552,245,3648,280,3744,262.5C3840,245,3936,175,4032,151.7C4128,128,4224,152,4320,151.7C4416,152,4512,128,4608,151.7C4704,175,4800,245,4896,239.2C4992,233,5088,152,5184,122.5C5280,93,5376,117,5472,128.3C5568,140,5664,140,5760,145.8C5856,152,5952,163,6048,169.2C6144,175,6240,175,6336,157.5C6432,140,6528,105,6624,116.7C6720,128,6816,187,6864,215.8L6912,245L6912,350L6864,350C6816,350,6720,350,6624,350C6528,350,6432,350,6336,350C6240,350,6144,350,6048,350C5952,350,5856,350,5760,350C5664,350,5568,350,5472,350C5376,350,5280,350,5184,350C5088,350,4992,350,4896,350C4800,350,4704,350,4608,350C4512,350,4416,350,4320,350C4224,350,4128,350,4032,350C3936,350,3840,350,3744,350C3648,350,3552,350,3456,350C3360,350,3264,350,3168,350C3072,350,2976,350,2880,350C2784,350,2688,350,2592,350C2496,350,2400,350,2304,350C2208,350,2112,350,2016,350C1920,350,1824,350,1728,350C1632,350,1536,350,1440,350C1344,350,1248,350,1152,350C1056,350,960,350,864,350C768,350,672,350,576,350C480,350,384,350,288,350C192,350,96,350,48,350L0,350Z"/><defs><linearGradient id="sw-gradient-1" x1="0" x2="0" y1="1" y2="0"><stop stop-color="rgba(69.289, 96.877, 123.267, 1)" offset="0%"/><stop stop-color="rgba(48.487, 76.163, 102.776, 1)" offset="100%"/></linearGradient></defs><path style="transform:translate(0, 50px); opacity:0.9" fill="url(#sw-gradient-1)" d="M0,140L48,157.5C96,175,192,210,288,210C384,210,480,175,576,186.7C672,198,768,257,864,274.2C960,292,1056,268,1152,262.5C1248,257,1344,268,1440,280C1536,292,1632,303,1728,303.3C1824,303,1920,292,2016,262.5C2112,233,2208,187,2304,180.8C2400,175,2496,210,2592,204.2C2688,198,2784,152,2880,110.8C2976,70,3072,35,3168,29.2C3264,23,3360,47,3456,81.7C3552,117,3648,163,3744,198.3C3840,233,3936,257,4032,262.5C4128,268,4224,257,4320,215.8C4416,175,4512,105,4608,75.8C4704,47,4800,58,4896,70C4992,82,5088,93,5184,81.7C5280,70,5376,35,5472,35C5568,35,5664,70,5760,99.2C5856,128,5952,152,6048,140C6144,128,6240,82,6336,93.3C6432,105,6528,175,6624,192.5C6720,210,6816,175,6864,157.5L6912,140L6912,350L6864,350C6816,350,6720,350,6624,350C6528,350,6432,350,6336,350C6240,350,6144,350,6048,350C5952,350,5856,350,5760,350C5664,350,5568,350,5472,350C5376,350,5280,350,5184,350C5088,350,4992,350,4896,350C4800,350,4704,350,4608,350C4512,350,4416,350,4320,350C4224,350,4128,350,4032,350C3936,350,3840,350,3744,350C3648,350,3552,350,3456,350C3360,350,3264,350,3168,350C3072,350,2976,350,2880,350C2784,350,2688,350,2592,350C2496,350,2400,350,2304,350C2208,350,2112,350,2016,350C1920,350,1824,350,1728,350C1632,350,1536,350,1440,350C1344,350,1248,350,1152,350C1056,350,960,350,864,350C768,350,672,350,576,350C480,350,384,350,288,350C192,350,96,350,48,350L0,350Z"/></svg>