<?xml version="1.0" standalone="no"?>
<svg xmlns:xlink="http://www.w3.org/1999/xlink" id="wave" style="transform:rotate(0deg); transition: 0.3s" viewBox="0 0 1440 300" version="1.1" xmlns="http://www.w3.org/2000/svg"><defs><linearGradient id="sw-gradient-0" x1="0" x2="0" y1="1" y2="0"><stop stop-color="rgba(36, 59, 81, 1)" offset="0%"/><stop stop-color="rgba(59.173, 95.423, 130.097, 1)" offset="100%"/></linearGradient></defs><path style="transform:translate(0, 0px); opacity:1" fill="url(#sw-gradient-0)" d="M0,150L120,130C240,110,480,70,720,45C960,20,1200,10,1440,20C1680,30,1920,60,2160,70C2400,80,2640,70,2880,80C3120,90,3360,120,3600,155C3840,190,4080,230,4320,245C4560,260,4800,250,5040,250C5280,250,5520,260,5760,260C6000,260,6240,250,6480,250C6720,250,6960,260,7200,225C7440,190,7680,110,7920,100C8160,90,8400,150,8640,175C8880,200,9120,190,9360,185C9600,180,9840,180,10080,155C10320,130,10560,80,10800,70C11040,60,11280,90,11520,115C11760,140,12000,160,12240,185C12480,210,12720,240,12960,235C13200,230,13440,190,13680,170C13920,150,14160,150,14400,145C14640,140,14880,130,15120,140C15360,150,15600,180,15840,175C16080,170,16320,130,16560,105C16800,80,17040,70,17160,65L17280,60L17280,300L17160,300C17040,300,16800,300,16560,300C16320,300,16080,300,15840,300C15600,300,15360,300,15120,300C14880,300,14640,300,14400,300C14160,300,13920,300,13680,300C13440,300,13200,300,12960,300C12720,300,12480,300,12240,300C12000,300,11760,300,11520,300C11280,300,11040,300,10800,300C10560,300,10320,300,10080,300C9840,300,9600,300,9360,300C9120,300,8880,300,8640,300C8400,300,8160,300,7920,300C7680,300,7440,300,7200,300C6960,300,6720,300,6480,300C6240,300,6000,300,5760,300C5520,300,5280,300,5040,300C4800,300,4560,300,4320,300C4080,300,3840,300,3600,300C3360,300,3120,300,2880,300C2640,300,2400,300,2160,300C1920,300,1680,300,1440,300C1200,300,960,300,720,300C480,300,240,300,120,300L0,300Z"/></svg>